<?xml version="1.0" standalone="no"?>
<!DOCTYPE svg PUBLIC "-//W3C//DTD SVG 20010904//EN"
 "http://www.w3.org/TR/2001/REC-SVG-20010904/DTD/svg10.dtd">
<svg version="1.0" xmlns="http://www.w3.org/2000/svg"
 width="100.000000pt" height="100.000000pt" viewBox="0 0 100.000000 100.000000"
 preserveAspectRatio="xMidYMid meet">
<metadata>
Created by potrace 1.11, written by Peter Selinger 2001-2013
</metadata>
<g transform="translate(0.000000,100.000000) scale(0.100000,-0.100000)"
fill="#000000" stroke="none">
<path d="M0 500 l0 -500 500 0 500 0 0 500 0 500 -500 0 -500 0 0 -500z m499
276 c53 -56 47 -157 -19 -294 l-39 -82 70 -36 c97 -48 104 -44 95 59 -3 45 -7
91 -9 102 -1 11 5 21 15 23 24 5 32 -33 33 -140 0 -94 2 -96 51 -78 19 8 30 8
38 0 16 -16 -14 -40 -59 -47 -26 -4 -50 -17 -70 -39 -31 -33 -89 -52 -121 -40
-26 10 -10 31 29 37 20 3 46 14 56 24 20 17 18 18 -67 60 -79 39 -89 42 -109
29 -25 -16 -81 -18 -102 -5 -38 24 35 88 88 76 26 -6 29 -2 64 72 47 99 61
170 44 220 -7 21 -20 39 -29 41 -9 2 -37 -15 -61 -37 -45 -41 -61 -49 -71 -32
-8 12 41 69 79 92 40 25 67 24 94 -5z"/>
</g>
</svg>
